<?xml version="1.0" standalone="no"?>
<!DOCTYPE svg PUBLIC "-//W3C//DTD SVG 20010904//EN"
 "http://www.w3.org/TR/2001/REC-SVG-20010904/DTD/svg10.dtd">
<svg version="1.0" xmlns="http://www.w3.org/2000/svg"
 width="256.000000pt" height="256.000000pt" viewBox="0 0 256.000000 256.000000"
 preserveAspectRatio="xMidYMid meet">

<g transform="translate(0.000000,256.000000) scale(0.100000,-0.100000)"
fill="#000000" stroke="none">
<path d="M2379 2546 c-14 -8 -45 -41 -69 -73 -97 -131 -147 -186 -188 -210
-40 -24 -50 -25 -130 -20 -48 3 -148 21 -222 38 -121 30 -150 33 -280 33 -128
0 -155 -4 -235 -28 -108 -32 -251 -99 -336 -157 -77 -52 -207 -175 -264 -249
-106 -139 -191 -329 -220 -497 -8 -47 -15 -138 -15 -201 l0 -115 -198 -346
c-110 -190 -204 -361 -210 -380 -38 -111 23 -256 132 -314 l41 -22 700 -3
c733 -3 813 0 945 40 235 72 439 258 534 486 113 270 110 545 -9 787 -89 182
-222 317 -400 405 -234 116 -451 120 -674 13 -77 -37 -108 -59 -170 -122 -146
-146 -207 -321 -181 -513 30 -214 152 -389 341 -488 214 -111 439 -86 578 65
169 184 105 486 -127 593 -72 33 -174 42 -220 18 -106 -55 -65 -236 52 -236
105 0 169 -111 116 -198 -31 -50 -80 -67 -157 -54 -137 23 -239 98 -296 220
-28 60 -32 77 -32 157 0 82 3 97 32 156 60 120 165 196 309 220 190 33 439
-87 564 -271 79 -116 104 -202 105 -355 0 -101 -4 -132 -24 -194 -77 -234
-300 -408 -565 -441 -254 -31 -548 96 -732 318 -67 81 -147 238 -176 347 -29
110 -31 317 -4 425 42 167 116 299 235 423 113 118 240 190 400 229 119 28
347 21 536 -17 241 -48 254 -49 304 -36 25 7 63 23 83 36 41 27 295 353 304
391 10 40 -5 89 -35 118 -36 34 -102 44 -142 22z m-1832 -1918 c44 -89 118
-190 208 -286 l77 -82 -202 0 -202 0 -33 33 c-39 39 -54 96 -37 140 14 37 144
257 152 257 3 0 20 -28 37 -62z"/>
</g>
</svg>
